<svg xmlns="http://www.w3.org/2000/svg" width="19.812" height="19" viewBox="0 0 19.812 19">
  <defs>
    <style>
      .cls-1 {
        fill: #d9cabb;
        fill-rule: evenodd;
      }
    </style>
  </defs>
  <path class="cls-1" d="M216.652,654.443a5.685,5.685,0,0,1,3.981,1.719v0.007a0.826,0.826,0,0,1,.807-0.885h0.12a0.9,0.9,0,0,1,.887.915l0,7.82a0.507,0.507,0,0,0,.851.446c1.255-1.294,2.752-6.633-.781-9.731a8.474,8.474,0,0,0-10.072-.786,7.591,7.591,0,0,0-2.547,9.128,7.691,7.691,0,0,0,9.422,3.915c1.459-.59,2.134,1.384.618,2.031-2.289.972-8.663,0.874-11.643-4.283a9.444,9.444,0,0,1,3.432-12.788,10.407,10.407,0,0,1,12.706,1.633c3.4,3.544,3.2,10.177-.109,12.76a2.31,2.31,0,0,1-3.711-1.678l-0.022-.558a5.558,5.558,0,0,1-3.942,1.64,5.653,5.653,0,0,1,0-11.305h0Zm3.765,5.468a3.564,3.564,0,0,0-3.7-3.507h-0.076a3.52,3.52,0,0,0-3.522,3.8,3.444,3.444,0,0,0,3.509,3.7,3.682,3.682,0,0,0,3.789-3.552v-0.443h0Z" transform="translate(-207.094 -650.5)"/>
</svg>
