<svg xmlns="http://www.w3.org/2000/svg" width="40" height="37.969" viewBox="0 0 40 37.969">
  <defs>
    <style>
      .cls-1 {
        fill: #fff;
        fill-rule: evenodd;
      }
    </style>
  </defs>
  <path class="cls-1" d="M463.484,45A15.313,15.313,0,1,1,448,60.313,15.4,15.4,0,0,1,463.484,45Zm0.016,3.844a11.485,11.485,0,1,1-11.625,11.485A11.556,11.556,0,0,1,463.5,48.844Zm10.241,20.025a1.952,1.952,0,0,1,2.739,0L487.434,79.7a1.9,1.9,0,0,1,0,2.708,1.952,1.952,0,0,1-2.739,0L473.741,71.577A1.9,1.9,0,0,1,473.741,68.869Z" transform="translate(-448 -45)"/>
</svg>
