<svg xmlns="http://www.w3.org/2000/svg" width="22" height="12.844" viewBox="0 0 22 12.844">
  <defs>
    <style>
      .cls-1 {
        fill: #d9cabb;
        fill-rule: evenodd;
      }
    </style>
  </defs>
  <path id="Shape_F_3_copy_3" data-name="Shape F_3 copy 3" class="cls-1" d="M78.765,666.832H80.08a1.1,1.1,0,0,0,.6-0.269,1,1,0,0,0,.181-0.592s-0.026-1.829.793-2.1S83.5,665.624,84.6,666.4a1.953,1.953,0,0,0,1.462.435l2.938,0s1.537-.119.808-1.358a10.029,10.029,0,0,0-2.185-2.591c-1.842-1.753-1.6-1.469.624-4.5,1.351-1.846,1.892-2.974,1.723-3.456a1.3,1.3,0,0,0-1.148-.381H85.5a0.788,0.788,0,0,0-.427.087,0.955,0.955,0,0,0-.292.392,19.425,19.425,0,0,1-1.222,2.67c-1.473,2.564-2.062,2.7-2.3,2.54-0.56-.371-0.42-1.49-0.42-2.286,0-2.484.368-3.52-.716-3.788A5.532,5.532,0,0,0,78.58,654a6.977,6.977,0,0,0-2.745.288c-0.376.189-.667,0.61-0.49,0.634a1.472,1.472,0,0,1,.976.5,3.344,3.344,0,0,1,.327,1.535s0.195,2.925-.455,3.288c-0.446.249-1.057-.26-2.371-2.586a21.209,21.209,0,0,1-1.181-2.533,1.009,1.009,0,0,0-.273-0.378,1.356,1.356,0,0,0-.508-0.21H68.717a1.05,1.05,0,0,0-.645.224,0.718,0.718,0,0,0-.012.574s2.461,5.946,5.248,8.921A7.523,7.523,0,0,0,78.765,666.832Z" transform="translate(-68 -654)"/>
</svg>
